<svg width="32" height="32" viewBox="0 0 32 32" fill="none" xmlns="http://www.w3.org/2000/svg">
<g clip-path="url(#clip0_5_2)">
<path d="M6.54256 31.6644C-2.18734 23.0061 -2.17437 8.98092 6.54256 0.335524C6.92557 -0.0443447 7.51904 -0.106609 7.97182 0.174054L12.3287 2.87493C12.6664 3.0842 12.8717 3.45154 12.8717 3.84658C12.8717 3.99234 12.8435 4.13684 12.7891 4.27211L10.6107 9.6735C10.4353 10.1084 10.0104 10.3938 9.53797 10.3938C9.49961 10.3938 9.4611 10.3919 9.42302 10.3881L5.67157 10.0161C4.25656 13.9001 4.28607 18.1808 5.67157 21.9837L9.42309 21.6117C9.46116 21.608 9.49967 21.606 9.53804 21.606C10.0104 21.606 10.4354 21.8914 10.6107 22.3263L12.7891 27.7278C12.8436 27.8629 12.8718 28.0077 12.8718 28.1533C12.8718 28.5484 12.6664 28.9157 12.3287 29.125L7.97184 31.8259C7.78855 31.9394 7.57597 32 7.35957 32C7.05317 32 6.75904 31.8791 6.54251 31.6644L6.54256 31.6644V31.6644ZM16.6114 4.23152C17.4067 5.56799 17.4067 7.23206 16.6114 8.56852C16.3459 9.01472 15.7303 9.09912 15.3532 8.74059L14.9516 8.35885C14.6887 8.10899 14.6294 7.71738 14.7996 7.39819C14.9632 7.09079 15.049 6.74788 15.049 6.40002C15.049 6.05216 14.9632 5.70926 14.7996 5.40185C14.6293 5.08265 14.6886 4.69105 14.9515 4.44118L15.3532 4.05945C15.7303 3.70092 16.3458 3.78531 16.6114 4.23151L16.6114 4.23152V4.23152ZM20.9693 1.31906C25.0118 6.09265 25.0086 13.0445 20.9693 17.8143C20.6686 18.1694 20.1271 18.1973 19.7895 17.8765L19.3998 17.506C19.0933 17.2146 19.0652 16.7374 19.3373 16.4141C22.6771 12.4449 22.6744 6.68519 19.3373 2.71926C19.0652 2.39593 19.0932 1.91873 19.3998 1.62733L19.7895 1.25686C20.1271 0.935993 20.6686 0.963928 20.9693 1.31906V1.31906V1.31906ZM17.8792 4.31512C20.3024 7.40326 20.3063 11.7251 17.8792 14.8182C17.5841 15.1943 17.0257 15.2349 16.6789 14.9051L16.2879 14.5332C15.9921 14.2519 15.9519 13.7935 16.2015 13.4711C17.9852 11.1669 17.985 7.96632 16.2015 5.66219C15.9519 5.33979 15.9921 4.88146 16.2879 4.60012L16.6789 4.22819C17.0257 3.89839 17.5841 3.93906 17.8792 4.31513V4.31512V4.31512Z" fill="black"/>
</g>
<defs>
<clipPath id="clip0_5_2">
<rect width="32" height="32" fill="white"/>
</clipPath>
</defs>
</svg>
